<?xml version="1.0" standalone="no"?>
<!DOCTYPE svg PUBLIC "-//W3C//DTD SVG 1.1//EN" "http://www.w3.org/Graphics/SVG/1.1/DTD/svg11.dtd">
<svg width="100%" height="100%" viewBox="0 0 1701 1701" version="1.1" xmlns="http://www.w3.org/2000/svg" xmlns:xlink="http://www.w3.org/1999/xlink" xml:space="preserve" style="fill-rule:evenodd;clip-rule:evenodd;stroke-linejoin:round;stroke-miterlimit:1.41421;">
    <g id="Layer1">
        <path d="M877.546,106.661L1011.07,517.594L1268.37,390.609L1227.11,674.557L1659.19,674.557L1309.63,928.527L1509.91,1133.99L1227.11,1182.5L1360.63,1593.43L1011.07,1339.46L877.546,1593.43L744.025,1339.46L394.464,1593.43L527.985,1182.5L245.184,1133.99L445.465,928.527L95.904,674.557L527.985,674.557L486.725,390.609L744.025,517.594L877.546,106.661Z" style="fill:rgb(248,244,0);"/>
        <g transform="matrix(0.839962,0,0,1.39695,86.1528,-231.498)">
            <g transform="matrix(1,0,0,0.96,0,32.919)">
                <path d="M553.289,718.745L553.289,822.976L524.488,822.976L524.488,754.677C519.827,758.219 515.318,761.085 510.961,763.275C506.603,765.466 501.139,767.563 494.567,769.567L494.567,746.218C504.261,743.096 511.788,739.344 517.147,734.963C522.507,730.582 526.701,725.176 529.731,718.745L553.289,718.745Z" style="fill:black;fill-rule:nonzero;"/>
                <path d="M668.302,822.976L582.876,822.976C583.855,814.54 586.826,806.606 591.789,799.172C596.753,791.739 606.062,782.966 619.717,772.852C628.059,766.654 633.396,761.947 635.726,758.731C638.056,755.516 639.221,752.463 639.221,749.574C639.221,746.451 638.068,743.783 635.761,741.569C633.454,739.356 630.553,738.249 627.057,738.249C623.422,738.249 620.451,739.391 618.144,741.674C615.837,743.958 614.288,747.989 613.495,753.768L584.974,751.461C586.092,743.445 588.143,737.188 591.125,732.691C594.108,728.194 598.314,724.745 603.743,722.345C609.173,719.945 616.688,718.745 626.288,718.745C636.308,718.745 644.103,719.887 649.672,722.17C655.241,724.454 659.622,727.961 662.815,732.691C666.007,737.421 667.603,742.723 667.603,748.595C667.603,754.84 665.774,760.805 662.115,766.491C658.457,772.177 651.804,778.422 642.157,785.226C636.425,789.187 632.592,791.96 630.658,793.545C628.723,795.129 626.451,797.203 623.842,799.767L668.302,799.767L668.302,822.976Z" style="fill:black;fill-rule:nonzero;"/>
                <path d="M684.188,760.479L710.962,760.479L710.962,733.565L733.542,733.565L733.542,760.479L760.456,760.479L760.456,783.129L733.542,783.129L733.542,809.903L710.962,809.903L710.962,783.129L684.188,783.129L684.188,760.479Z" style="fill:black;fill-rule:nonzero;"/>
                <rect x="830.746" y="720.492" width="31.738" height="102.483" style="fill:black;fill-rule:nonzero;"/>
                <path d="M886.128,720.492L915.699,720.492L954.287,777.187L954.287,720.492L984.138,720.492L984.138,822.976L954.287,822.976L915.909,766.701L915.909,822.976L886.128,822.976L886.128,720.492Z" style="fill:black;fill-rule:nonzero;"/>
                <path d="M1074.12,781.101L1101.88,789.49C1100.01,797.273 1097.08,803.775 1093.07,808.994C1089.06,814.214 1084.09,818.152 1078.14,820.808C1072.2,823.465 1064.64,824.793 1055.46,824.793C1044.32,824.793 1035.22,823.174 1028.16,819.935C1021.1,816.696 1015.01,810.998 1009.88,802.842C1004.75,794.687 1002.19,784.247 1002.19,771.524C1002.19,754.56 1006.7,741.523 1015.72,732.411C1024.74,723.3 1037.49,718.745 1053.99,718.745C1066.9,718.745 1077.05,721.355 1084.43,726.574C1091.82,731.794 1097.31,739.81 1100.9,750.622L1072.94,756.844C1071.96,753.721 1070.93,751.438 1069.86,749.993C1068.09,747.57 1065.92,745.705 1063.36,744.4C1060.8,743.096 1057.93,742.443 1054.76,742.443C1047.58,742.443 1042.08,745.333 1038.26,751.112C1035.37,755.399 1033.93,762.133 1033.93,771.315C1033.93,782.686 1035.65,790.481 1039.1,794.698C1042.55,798.916 1047.4,801.025 1053.64,801.025C1059.7,801.025 1064.28,799.324 1067.38,795.922C1070.48,792.52 1072.73,787.579 1074.12,781.101Z" style="fill:black;fill-rule:nonzero;"/>
                <path d="M1118.11,720.492L1149.78,720.492L1149.78,756.355L1184.38,756.355L1184.38,720.492L1216.19,720.492L1216.19,822.976L1184.38,822.976L1184.38,781.521L1149.78,781.521L1149.78,822.976L1118.11,822.976L1118.11,720.492Z" style="fill:black;fill-rule:nonzero;"/>
                <path d="M1237.88,720.492L1322.75,720.492L1322.75,742.373L1269.62,742.373L1269.62,758.661L1318.9,758.661L1318.9,779.564L1269.62,779.564L1269.62,799.767L1324.28,799.767L1324.28,822.976L1237.88,822.976L1237.88,720.492Z" style="fill:black;fill-rule:nonzero;"/>
                <path d="M1336.53,789.071L1366.66,787.183C1367.32,792.077 1368.64,795.805 1370.65,798.368C1373.91,802.516 1378.57,804.59 1384.63,804.59C1389.15,804.59 1392.63,803.53 1395.08,801.409C1397.53,799.289 1398.75,796.83 1398.75,794.034C1398.75,791.378 1397.59,789.001 1395.26,786.904C1392.92,784.807 1387.52,782.826 1379.04,780.962C1365.15,777.839 1355.25,773.691 1349.33,768.518C1343.36,763.345 1340.38,756.751 1340.38,748.735C1340.38,743.468 1341.9,738.493 1344.96,733.81C1348.01,729.126 1352.6,725.444 1358.73,722.764C1364.86,720.085 1373.26,718.745 1383.93,718.745C1397.03,718.745 1407.01,721.18 1413.89,726.05C1420.76,730.92 1424.85,738.668 1426.15,749.294L1396.3,751.042C1395.51,746.428 1393.85,743.072 1391.31,740.975C1388.77,738.878 1385.26,737.829 1380.79,737.829C1377.1,737.829 1374.33,738.61 1372.47,740.171C1370.6,741.732 1369.67,743.632 1369.67,745.869C1369.67,747.5 1370.44,748.968 1371.98,750.273C1373.47,751.624 1377.01,752.882 1382.6,754.048C1396.44,757.03 1406.36,760.048 1412.35,763.1C1418.34,766.153 1422.69,769.94 1425.42,774.46C1428.15,778.981 1429.51,784.038 1429.51,789.63C1429.51,796.201 1427.69,802.26 1424.06,807.806C1420.42,813.352 1415.34,817.558 1408.82,820.424C1402.29,823.29 1394.07,824.723 1384.14,824.723C1366.71,824.723 1354.64,821.368 1347.93,814.657C1341.22,807.946 1337.42,799.417 1336.53,789.071Z" style="fill:black;fill-rule:nonzero;"/>
            </g>
            <g transform="matrix(1,0,0,0.96,0,38.6458)">
                <path d="M621.263,914.973C621.263,898.242 625.924,885.216 635.245,875.895C644.566,866.574 657.545,861.914 674.183,861.914C691.24,861.914 704.382,866.492 713.61,875.65C722.838,884.808 727.452,897.636 727.452,914.134C727.452,926.111 725.436,935.933 721.405,943.599C717.373,951.266 711.548,957.231 703.928,961.495C696.308,965.76 686.813,967.892 675.441,967.892C663.883,967.892 654.318,966.051 646.744,962.369C639.171,958.688 633.031,952.862 628.324,944.893C623.617,936.923 621.263,926.95 621.263,914.973ZM652.931,915.112C652.931,925.459 654.854,932.892 658.698,937.413C662.543,941.933 667.775,944.194 674.392,944.194C681.197,944.194 686.463,941.98 690.191,937.552C693.92,933.125 695.784,925.179 695.784,913.714C695.784,904.067 693.838,897.018 689.947,892.568C686.055,888.117 680.777,885.891 674.113,885.891C667.728,885.891 662.602,888.152 658.733,892.672C654.865,897.193 652.931,904.673 652.931,915.112Z" style="fill:black;fill-rule:nonzero;"/>
                <path d="M745.364,863.661L823.66,863.661L823.66,885.682L777.172,885.682L777.172,903.578L816.879,903.578L816.879,924.27L777.172,924.27L777.172,966.144L745.364,966.144L745.364,863.661Z" style="fill:black;fill-rule:nonzero;"/>
                <path d="M882.695,863.661L978.956,863.661L978.956,888.967L946.659,888.967L946.659,966.144L914.991,966.144L914.991,888.967L882.695,888.967L882.695,863.661Z" style="fill:black;fill-rule:nonzero;"/>
                <path d="M993.933,863.661L1078.8,863.661L1078.8,885.542L1025.67,885.542L1025.67,901.83L1074.95,901.83L1074.95,922.732L1025.67,922.732L1025.67,942.935L1080.34,942.935L1080.34,966.144L993.933,966.144L993.933,863.661Z" style="fill:black;fill-rule:nonzero;"/>
                <path d="M1091.05,863.661L1125.93,863.661L1144.11,895.189L1161.73,863.661L1196.26,863.661L1164.38,913.295L1199.27,966.144L1163.68,966.144L1143.48,933.218L1123.21,966.144L1087.83,966.144L1123.21,912.736L1091.05,863.661Z" style="fill:black;fill-rule:nonzero;"/>
                <path d="M1202.99,863.661L1299.25,863.661L1299.25,888.967L1266.95,888.967L1266.95,966.144L1235.28,966.144L1235.28,888.967L1202.99,888.967L1202.99,863.661Z" style="fill:black;fill-rule:nonzero;"/>
            </g>
        </g>
    </g>
</svg>
