<?xml version="1.0" standalone="no"?>
<!DOCTYPE svg PUBLIC "-//W3C//DTD SVG 1.1//EN" "http://www.w3.org/Graphics/SVG/1.1/DTD/svg11.dtd">
<svg width="100%" height="100%" viewBox="0 0 1134 1134" version="1.1" xmlns="http://www.w3.org/2000/svg" xmlns:xlink="http://www.w3.org/1999/xlink" xml:space="preserve" style="fill-rule:evenodd;clip-rule:evenodd;stroke-linejoin:round;stroke-miterlimit:1.41421;">
    <g transform="matrix(1.30784,0,0,1.30784,-277.786,-190.802)">
        <g id="Layer1">
            <path d="M640.073,190.968L711.808,411.744L850.044,343.52L827.877,496.073L1060.01,496.073L872.211,632.52L979.813,742.908L827.877,768.967L899.611,989.743L711.808,853.296L640.073,989.743L568.339,853.296L380.536,989.743L452.27,768.967L300.334,742.908L407.936,632.52L220.133,496.073L452.27,496.073L430.103,343.52L568.339,411.744L640.073,190.968Z" style="fill:rgb(255,255,0);"/>
        </g>
    </g>
    <g transform="matrix(0.98589,0.167397,-0.424243,2.4986,215.961,-669.865)">
        <g id="Layer2">
            <path d="M374.457,414.962L414.857,414.962L414.857,460.714L459.004,460.714L459.004,414.962L499.582,414.962L499.582,545.706L459.004,545.706L459.004,492.82L414.857,492.82L414.857,545.706L374.457,545.706L374.457,414.962Z" style="fill:rgb(255,0,0);fill-rule:nonzero;"/>
            <path d="M521.343,480.424C521.343,459.079 527.289,442.461 539.18,430.569C551.072,418.678 567.63,412.733 588.856,412.733C610.617,412.733 627.384,418.574 639.156,430.257C650.928,441.94 656.814,458.306 656.814,479.353C656.814,494.634 654.243,507.164 649.1,516.945C643.957,526.725 636.525,534.335 626.804,539.776C617.083,545.216 604.969,547.936 590.461,547.936C575.716,547.936 563.513,545.588 553.851,540.891C544.189,536.193 536.356,528.761 530.351,518.594C524.346,508.427 521.343,495.704 521.343,480.424ZM561.744,480.602C561.744,493.801 564.196,503.284 569.102,509.052C574.007,514.819 580.681,517.703 589.123,517.703C597.804,517.703 604.523,514.878 609.279,509.23C614.036,503.582 616.414,493.444 616.414,478.818C616.414,466.511 613.932,457.518 608.967,451.84C604.002,446.162 597.269,443.323 588.767,443.323C580.621,443.323 574.081,446.206 569.146,451.974C564.211,457.741 561.744,467.284 561.744,480.602Z" style="fill:rgb(255,0,0);fill-rule:nonzero;"/>
            <path d="M664.663,414.962L787.469,414.962L787.469,447.247L746.266,447.247L746.266,545.706L705.866,545.706L705.866,447.247L664.663,447.247L664.663,414.962Z" style="fill:rgb(255,0,0);fill-rule:nonzero;"/>
        </g>
    </g>
</svg>
