<?xml version="1.0" standalone="no"?>
<!DOCTYPE svg PUBLIC "-//W3C//DTD SVG 1.1//EN" "http://www.w3.org/Graphics/SVG/1.1/DTD/svg11.dtd">
<svg width="100%" height="100%" viewBox="0 0 1701 1701" version="1.1" xmlns="http://www.w3.org/2000/svg" xmlns:xlink="http://www.w3.org/1999/xlink" xml:space="preserve" style="fill-rule:evenodd;clip-rule:evenodd;stroke-linejoin:round;stroke-miterlimit:1.41421;">
    <g id="Layer1">
        <path d="M877.546,106.661L1011.07,517.594L1268.37,390.609L1227.11,674.557L1659.19,674.557L1309.63,928.527L1509.91,1133.99L1227.11,1182.5L1360.63,1593.43L1011.07,1339.46L877.546,1593.43L744.025,1339.46L394.464,1593.43L527.985,1182.5L245.184,1133.99L445.465,928.527L95.904,674.557L527.985,674.557L486.725,390.609L744.025,517.594L877.546,106.661Z" style="fill:rgb(248,244,0);"/>
        <g transform="matrix(1,0,0,1,-47.8407,164.246)">
            <path d="M682.208,610.394L646.773,604.043C649.718,592.753 655.378,584.101 663.754,578.088C672.13,572.075 683.987,569.068 699.327,569.068C716.937,569.068 729.669,572.351 737.523,578.916C745.377,585.482 749.305,593.735 749.305,603.675C749.305,609.504 747.709,614.781 744.518,619.506C741.328,624.23 736.511,628.372 730.068,631.931C735.284,633.219 739.272,634.723 742.033,636.441C746.513,639.202 749.995,642.837 752.48,647.347C754.965,651.857 756.207,657.242 756.207,663.5C756.207,671.354 754.152,678.886 750.041,686.096C745.93,693.306 740.009,698.859 732.277,702.755C724.546,706.651 714.391,708.6 701.812,708.6C689.54,708.6 679.861,707.158 672.774,704.274C665.687,701.39 659.858,697.171 655.286,691.618C650.715,686.065 647.202,679.086 644.748,670.679L682.208,665.709C683.68,673.256 685.966,678.487 689.065,681.402C692.163,684.317 696.106,685.774 700.892,685.774C705.923,685.774 710.111,683.933 713.455,680.251C716.799,676.57 718.471,671.661 718.471,665.525C718.471,659.267 716.861,654.419 713.639,650.983C710.418,647.547 706.046,645.829 700.524,645.829C697.578,645.829 693.529,646.565 688.374,648.038L690.307,621.254C692.394,621.561 694.02,621.714 695.185,621.714C700.094,621.714 704.19,620.15 707.473,617.02C710.755,613.891 712.397,610.179 712.397,605.884C712.397,601.773 711.17,598.49 708.715,596.036C706.261,593.581 702.886,592.354 698.591,592.354C694.173,592.354 690.583,593.689 687.822,596.358C685.061,599.027 683.19,603.705 682.208,610.394Z" style="fill:black;fill-rule:nonzero;"/>
            <path d="M771.578,638.282C771.578,612.633 776.195,594.686 785.43,584.439C794.665,574.192 808.731,569.068 827.63,569.068C836.711,569.068 844.166,570.188 849.996,572.427C855.825,574.667 860.58,577.582 864.262,581.171C867.943,584.761 870.842,588.534 872.959,592.492C875.076,596.45 876.779,601.067 878.068,606.344C880.583,616.407 881.841,626.899 881.841,637.821C881.841,662.304 877.699,680.221 869.416,691.572C861.132,702.924 846.866,708.6 826.618,708.6C815.266,708.6 806.093,706.789 799.098,703.169C792.103,699.549 786.366,694.241 781.886,687.246C778.634,682.276 776.103,675.481 774.293,666.86C772.483,658.239 771.578,648.713 771.578,638.282ZM808.762,638.374C808.762,655.554 810.281,667.289 813.318,673.579C816.355,679.868 820.758,683.013 826.525,683.013C830.33,683.013 833.628,681.678 836.42,679.009C839.212,676.34 841.267,672.121 842.586,666.354C843.906,660.586 844.565,651.597 844.565,639.386C844.565,621.469 843.047,609.427 840.009,603.261C836.972,597.094 832.416,594.011 826.341,594.011C820.144,594.011 815.665,597.155 812.904,603.445C810.142,609.734 808.762,621.377 808.762,638.374Z" style="fill:black;fill-rule:nonzero;"/>
            <path d="M897.304,638.282C897.304,612.633 901.921,594.686 911.156,584.439C920.39,574.192 934.457,569.068 953.356,569.068C962.437,569.068 969.892,570.188 975.721,572.427C981.55,574.667 986.306,577.582 989.987,581.171C993.669,584.761 996.568,588.534 998.685,592.492C1000.8,596.45 1002.5,601.067 1003.79,606.344C1006.31,616.407 1007.57,626.899 1007.57,637.821C1007.57,662.304 1003.43,680.221 995.142,691.572C986.858,702.924 972.592,708.6 952.343,708.6C940.992,708.6 931.818,706.789 924.823,703.169C917.828,699.549 912.091,694.241 907.612,687.246C904.36,682.276 901.829,675.481 900.019,666.86C898.209,658.239 897.304,648.713 897.304,638.282ZM934.488,638.374C934.488,655.554 936.006,667.289 939.044,673.579C942.081,679.868 946.483,683.013 952.251,683.013C956.055,683.013 959.354,681.678 962.145,679.009C964.937,676.34 966.993,672.121 968.312,666.354C969.631,660.586 970.291,651.597 970.291,639.386C970.291,621.469 968.772,609.427 965.735,603.261C962.698,597.094 958.142,594.011 952.067,594.011C945.87,594.011 941.391,597.155 938.629,603.445C935.868,609.734 934.488,621.377 934.488,638.374Z" style="fill:black;fill-rule:nonzero;"/>
            <path d="M1023.03,638.282C1023.03,612.633 1027.65,594.686 1036.88,584.439C1046.12,574.192 1060.18,569.068 1079.08,569.068C1088.16,569.068 1095.62,570.188 1101.45,572.427C1107.28,574.667 1112.03,577.582 1115.71,581.171C1119.39,584.761 1122.29,588.534 1124.41,592.492C1126.53,596.45 1128.23,601.067 1129.52,606.344C1132.04,616.407 1133.29,626.899 1133.29,637.821C1133.29,662.304 1129.15,680.221 1120.87,691.572C1112.58,702.924 1098.32,708.6 1078.07,708.6C1066.72,708.6 1057.54,706.789 1050.55,703.169C1043.55,699.549 1037.82,694.241 1033.34,687.246C1030.09,682.276 1027.56,675.481 1025.75,666.86C1023.93,658.239 1023.03,648.713 1023.03,638.282ZM1060.21,638.374C1060.21,655.554 1061.73,667.289 1064.77,673.579C1067.81,679.868 1072.21,683.013 1077.98,683.013C1081.78,683.013 1085.08,681.678 1087.87,679.009C1090.66,676.34 1092.72,672.121 1094.04,666.354C1095.36,660.586 1096.02,651.597 1096.02,639.386C1096.02,621.469 1094.5,609.427 1091.46,603.261C1088.42,597.094 1083.87,594.011 1077.79,594.011C1071.6,594.011 1067.12,597.155 1064.36,603.445C1061.59,609.734 1060.21,621.377 1060.21,638.374Z" style="fill:black;fill-rule:nonzero;"/>
            <path d="M1152.71,624.015L1187.96,624.015L1187.96,588.58L1217.69,588.58L1217.69,624.015L1253.13,624.015L1253.13,653.836L1217.69,653.836L1217.69,689.087L1187.96,689.087L1187.96,653.836L1152.71,653.836L1152.71,624.015Z" style="fill:black;fill-rule:nonzero;"/>
            <path d="M565.87,759.865L605.447,759.865L619.713,835.246L640.514,759.865L679.999,759.865L700.892,835.246L715.158,759.865L754.551,759.865L724.822,894.795L683.957,894.795L660.302,809.843L636.74,894.795L595.875,894.795L565.87,759.865Z" style="fill:black;fill-rule:nonzero;"/>
            <path d="M759.797,827.422C759.797,805.394 765.933,788.244 778.205,775.972C790.477,763.7 807.565,757.565 829.471,757.565C851.928,757.565 869.232,763.593 881.381,775.65C893.53,787.707 899.605,804.597 899.605,826.318C899.605,842.087 896.951,855.019 891.643,865.112C886.336,875.206 878.666,883.06 868.633,888.675C858.601,894.289 846.099,897.096 831.127,897.096C815.91,897.096 803.316,894.672 793.345,889.825C783.374,884.978 775.29,877.308 769.093,866.815C762.896,856.323 759.797,843.192 759.797,827.422ZM801.491,827.606C801.491,841.228 804.022,851.015 809.084,856.967C814.146,862.919 821.034,865.895 829.747,865.895C838.705,865.895 845.639,862.98 850.548,857.151C855.457,851.322 857.911,840.86 857.911,825.766C857.911,813.064 855.349,803.784 850.226,797.924C845.102,792.064 838.153,789.134 829.379,789.134C820.972,789.134 814.223,792.11 809.13,798.062C804.037,804.014 801.491,813.862 801.491,827.606Z" style="fill:black;fill-rule:nonzero;"/>
            <path d="M922.615,894.795L922.615,759.865L992.104,759.865C1004.99,759.865 1014.84,760.97 1021.65,763.179C1028.46,765.388 1033.95,769.484 1038.12,775.466C1042.3,781.449 1044.38,788.735 1044.38,797.325C1044.38,804.811 1042.79,811.269 1039.6,816.7C1036.41,822.13 1032.02,826.533 1026.43,829.907C1022.88,832.055 1018,833.834 1011.8,835.246C1016.77,836.902 1020.39,838.559 1022.66,840.216C1024.19,841.32 1026.42,843.683 1029.33,847.303C1032.25,850.923 1034.2,853.715 1035.18,855.678L1055.34,894.795L1008.21,894.795L985.938,853.562C983.115,848.223 980.599,844.756 978.39,843.161C975.384,841.075 971.978,840.032 968.174,840.032L964.492,840.032L964.492,894.795L922.615,894.795ZM964.492,814.537L982.072,814.537C983.974,814.537 987.656,813.923 993.117,812.696C995.878,812.144 998.133,810.733 999.882,808.462C1001.63,806.192 1002.5,803.584 1002.5,800.639C1002.5,796.282 1001.12,792.938 998.363,790.607C995.602,788.275 990.417,787.109 982.808,787.109L964.492,787.109L964.492,814.537Z" style="fill:black;fill-rule:nonzero;"/>
            <path d="M1069.23,759.865L1131.18,759.865C1143.39,759.865 1153.25,761.522 1160.77,764.836C1168.28,768.149 1174.5,772.904 1179.4,779.102C1184.31,785.299 1187.87,792.509 1190.08,800.731C1192.29,808.953 1193.39,817.666 1193.39,826.87C1193.39,841.29 1191.75,852.472 1188.47,860.418C1185.19,868.365 1180.63,875.022 1174.8,880.391C1168.97,885.76 1162.71,889.334 1156.03,891.114C1146.88,893.568 1138.6,894.795 1131.18,894.795L1069.23,894.795L1069.23,759.865ZM1110.93,790.423L1110.93,864.146L1121.14,864.146C1129.86,864.146 1136.05,863.18 1139.74,861.247C1143.42,859.314 1146.3,855.939 1148.39,851.122C1150.47,846.306 1151.52,838.498 1151.52,827.698C1151.52,813.402 1149.18,803.615 1144.52,798.338C1139.86,793.061 1132.13,790.423 1121.33,790.423L1110.93,790.423Z" style="fill:black;fill-rule:nonzero;"/>
            <path d="M1208.03,850.156L1247.7,847.671C1248.56,854.114 1250.31,859.023 1252.94,862.397C1257.24,867.858 1263.38,870.589 1271.35,870.589C1277.3,870.589 1281.89,869.193 1285.11,866.401C1288.33,863.609 1289.94,860.372 1289.94,856.691C1289.94,853.193 1288.41,850.064 1285.34,847.303C1282.27,844.542 1275.16,841.934 1263.99,839.479C1245.7,835.368 1232.66,829.907 1224.87,823.097C1217.02,816.286 1213.09,807.603 1213.09,797.049C1213.09,790.116 1215.1,783.566 1219.12,777.399C1223.14,771.232 1229.18,766.385 1237.25,762.857C1245.32,759.329 1256.38,757.565 1270.43,757.565C1287.67,757.565 1300.82,760.771 1309.87,767.183C1318.92,773.595 1324.31,783.796 1326.02,797.786L1286.72,800.087C1285.68,794.012 1283.49,789.594 1280.14,786.833C1276.8,784.072 1272.18,782.691 1266.29,782.691C1261.44,782.691 1257.79,783.719 1255.34,785.775C1252.88,787.83 1251.65,790.331 1251.65,793.276C1251.65,795.423 1252.67,797.356 1254.69,799.074C1256.66,800.854 1261.32,802.51 1268.68,804.044C1286.91,807.971 1299.96,811.944 1307.85,815.963C1315.73,819.983 1321.47,824.968 1325.06,830.92C1328.65,836.872 1330.44,843.529 1330.44,850.892C1330.44,859.544 1328.05,867.521 1323.26,874.823C1318.48,882.124 1311.79,887.662 1303.2,891.436C1294.61,895.209 1283.78,897.096 1270.71,897.096C1247.76,897.096 1231.87,892.678 1223.03,883.842C1214.19,875.007 1209.19,863.778 1208.03,850.156Z" style="fill:black;fill-rule:nonzero;"/>
        </g>
    </g>
</svg>
